<?xml version="1.0" encoding="utf-8"?>
<!-- Generator: Adobe Illustrator 24.1.0, SVG Export Plug-In . SVG Version: 6.00 Build 0)  -->
<svg version="1.1" id="Layer_1" xmlns="http://www.w3.org/2000/svg" xmlns:xlink="http://www.w3.org/1999/xlink" x="0px" y="0px"
	 viewBox="0 0 792 1224" style="enable-background:new 0 0 792 1224;" xml:space="preserve">
<style type="text/css">
	.st0{fill:#FFFFFF;stroke:#000000;stroke-miterlimit:10;}
	.st1{stroke:#FFFFFF;stroke-miterlimit:10;}
</style>
<path d="M179.91,591.09c0.72-1.21,1.16-1.91,1.57-2.62c25.17-43.8,60.61-76.62,106.24-98.11c47.87-22.55,98.38-28.35,150.29-20.3
	c76.66,11.89,134.75,51.78,174.35,118.53c0.48,0.81,1.08,1.55,1.7,2.43c6.52-2.85,12.85-5.4,18.93-8.46c1.4-0.71,2.83-3.3,2.66-4.86
	c-3.09-29.05-13.09-55.23-32.37-77.61c-2.46-2.85-4.29-6.69-5.17-10.37c-3.25-13.6-5.83-27.36-9.02-40.98
	c-0.63-2.67-2.31-5.69-4.44-7.3c-8.09-6.12-16.24-12.28-24.95-17.44c-34.61-20.51-72.28-32.19-112.03-37.36
	c-57.73-7.51-114.39-3.32-169.44,16.54c-24.43,8.82-47.27,20.68-67.75,36.84c-3.43,2.71-5.55,5.76-6.39,10.18
	c-2.5,13.08-5.18,26.15-8.32,39.09c-0.97,3.98-3.01,8.09-5.66,11.2c-18.88,22.21-28.81,48.08-31.93,76.76
	c-0.18,1.65,0.95,4.43,2.28,5.1C166.65,585.52,173.14,588.12,179.91,591.09z M401.8,1045.68c6.37-0.83,17.72-1.59,28.74-3.89
	c32.75-6.82,60.6-22.67,83.26-47.37c1.49-1.63,2.79-4.37,2.62-6.46c-3.41-41.33-6.98-82.65-10.78-123.95
	c-0.28-3.03-1.84-6.46-3.89-8.72c-17.43-19.25-39.63-31.15-63.54-40.2c-1.49-0.56-3.81,0.14-5.4,0.94
	c-24.12,12.19-48.13,12.85-72.17-0.24c-1.39-0.76-3.57-1.19-4.96-0.66c-23.43,8.88-45.05,20.69-62.64,39.02
	c-3.06,3.19-4.54,6.59-4.91,11c-3.36,40-6.79,79.99-10.5,119.96c-0.43,4.69,0.82,7.8,3.93,11.01
	C313.13,1028.66,351.72,1044.64,401.8,1045.68z M25.26,408.12c-0.65,16.92,9.48,34.55,22.39,50.88
	c10.02,12.68,22.52,22.17,38.47,26.39c18.06,4.78,33.69-1.6,42.87-17.87c4.33-7.68,8.53-15.5,11.93-23.61
	c17.57-41.91,35.23-83.79,52.07-125.99c7.19-18.03,13.78-36.52,18.26-55.37c6.34-26.71-1.98-42.93-25.9-56.51
	c-2.88-1.64-5.92-3.08-9.03-4.24c-20.33-7.57-40.63-6.89-57.76,14.26c-31.74,39.18-58.52,81.36-78.22,127.83
	C32.32,362.8,26.11,382.32,25.26,408.12z M766.47,386.12c0.47-0.1,0.94-0.21,1.41-0.31c-2.8-12.79-4.81-25.83-8.57-38.33
	c-8.19-27.26-21.19-52.44-35.64-76.85c-16.23-27.41-33.8-53.9-55.23-77.61c-8.16-9.03-18.5-13.4-30.65-13.3
	c-16.76,0.15-31.01,6.72-43.62,17.37c-10.44,8.82-16.54,19.94-14.99,33.72c1.27,11.33,2.57,23.1,6.61,33.61
	c18.39,47.85,37.54,95.41,56.9,142.87c5.9,14.46,13.04,28.45,20.22,42.34c7.44,14.38,19.82,20.74,35.89,19.14
	c5.06-0.5,10.17-1.93,14.93-3.78C742.98,453.6,768.88,412.3,766.47,386.12z M563.05,418.45c3.09-5.4,6.22-10.3,8.69-15.52
	c0.87-1.84,0.94-4.92-0.02-6.65c-23.49-42.39-47.16-84.68-70.82-126.98c-0.53-0.96-1.32-1.77-1.23-1.65
	c-69.04,25.93-137.07,25.83-205.91-0.07c-3.11,5.57-6.67,11.95-10.23,18.32c-20.48,36.64-40.97,73.26-61.38,109.94
	c-0.87,1.56-1.77,4.03-1.14,5.33c2.83,5.78,6.22,11.29,9.1,16.35c10.19-6.38,19.71-13.09,29.9-18.57
	c23.11-12.43,48.25-19.07,73.86-23.88c22.61-4.25,45.44-8.09,68.46-6.78c19.4,1.11,38.86,3.47,57.97,7.01
	C497.25,382.13,532.84,392.93,563.05,418.45z M387.23,280.48c34.05-0.23,64.6-5.2,94.1-16.26c2.77-1.04,4.22-2.51,4.95-5.48
	c2.99-12.12,6.2-24.18,9.52-36.21c0.85-3.07,0.55-5.12-2.06-7.35c-16.54-14.13-34.35-26.31-53.97-35.76
	c-24.7-11.89-50.36-16.03-77.1-8.38c-29.59,8.47-54.46,25.29-77.41,45.21c-1.17,1.02-1.6,3.86-1.19,5.56
	c2.97,12.12,6.4,24.13,9.36,36.26c0.86,3.52,2.65,5.21,5.94,6.44C328.56,275.43,358.82,280.15,387.23,280.48z M207.99,207.64
	c16.93,15.85,17.89,35.74,13.91,56.47c-2.48,12.89-5.7,25.71-9.64,38.23c-15.13,48.09-35.24,94.19-56.99,139.57
	c-6.23,13.01-13.23,25.81-21.31,37.74c-8.45,12.47-20.33,20.9-37.66,21.78c2.56,0.82,3.75,1.32,4.99,1.59
	c19.22,4.16,36.7,0,52.58-11.29c12.71-9.03,23.23-20.4,30.3-34.11c12.05-23.36,23.43-47.11,34.12-71.13
	c13.55-30.45,25.55-61.52,32.34-94.35C257.99,256.46,241.32,222.9,207.99,207.64z M694.35,483.81
	c-10.89-0.35-19.64-5.12-27.48-12.04c-9.67-8.54-16.39-19.23-22.02-30.64c-19.53-39.59-37.46-79.88-52.95-121.23
	c-9.35-24.95-18.14-50.1-22.39-76.56c-3.12-19.43-1.31-37.6,13.74-52.28c0.13-0.13,0.05-0.48,0.07-0.76
	c-20.73,8.57-46.61,35.74-43.52,69.57c1.2,13.16,4.1,26.34,7.82,39.05c11.95,40.87,29.69,79.46,47.81,117.88
	c7.94,16.82,16.87,32.89,30.01,46.28c9.59,9.78,20.51,17.52,33.84,21.32C671.02,487.75,682.75,487.68,694.35,483.81z M574.01,657.76
	c-5.21-4.81-9.39-10.45-15-13.43c-7.36-3.91-15.64-6.91-23.86-8.2c-26.94-4.25-54.16-3.44-81.28-2.26
	c-15.94,0.69-28.92,7.45-36.04,22.78c-0.11,0.24-0.55,0.32-1.2,0.67c-17.02-6.65-34.45-6.95-52.06-0.01
	c-8.93-19.21-25.5-23.8-44.36-24c-8.66-0.09-17.35-0.45-25.99,0.02c-17.6,0.97-35.23,1.88-52.72,3.88
	c-10.18,1.16-19.57,5.54-26.71,13.45c-2.18,2.41-3.96,5.17-6.19,8.11c-8.06-14.37-15.86-28.3-23.69-42.23
	c-0.73-1.3-1.31-2.92-2.44-3.71c-1.18-0.82-3.4-1.55-4.33-0.98c-1.24,0.76-2.24,2.82-2.28,4.35c-0.04,1.47,1.22,3.02,2.02,4.47
	c7.94,14.25,15.91,28.49,23.87,42.73c-0.54,0-1.08-0.01-1.62-0.01c-0.33,3.43-0.65,6.85-0.99,10.35c2.55,0.32,4.15,0.52,6.14,0.77
	c0,7.05-0.09,13.85,0.02,20.65c0.36,24.24,11.44,41.91,32.92,53.02c10.38,5.37,21.63,7.53,33.21,8.34
	c15.28,1.07,30.3-0.15,44.89-5.04c36.45-12.2,52.1-45.18,50.82-80.77c-0.16-4.33,0.83-6.21,4.83-7.46
	c13.41-4.18,26.59-3.4,39.78,0.93c2.7,0.89,3.19,2.25,3.3,5.06c0.35,8.76,0.55,17.65,2.21,26.22c4.54,23.43,16.8,41.76,38.89,51.9
	c26.81,12.3,54.59,13.08,82.23,3.11c20.07-7.24,33.03-21.82,37.06-42.97c1.67-8.73,0.99-17.9,1.34-26.88
	c0.08-2.08,0.01-4.16,0.01-6.06c2.49-0.38,4.07-0.62,6.38-0.97c-0.58-3.82-1.11-7.28-1.84-12.08c3.59-6.41,7.98-14.26,12.38-22.1
	c4-7.12,8.2-14.13,11.84-21.42c0.73-1.47-0.67-4-1.1-6.05c-1.96,0.68-4.12,1.05-5.81,2.15c-1.12,0.73-1.56,2.49-2.29,3.8
	C588.79,631.37,581.23,644.87,574.01,657.76z"/>
<path class="st0" d="M179.91,591.09c-6.77-2.97-13.26-5.58-19.46-8.73c-1.32-0.67-2.46-3.45-2.28-5.1
	c3.13-28.69,13.05-54.55,31.93-76.76c2.65-3.12,4.69-7.23,5.66-11.2c3.14-12.94,5.82-26,8.32-39.09c0.85-4.42,2.96-7.47,6.39-10.18
	c20.48-16.17,43.32-28.03,67.75-36.84c55.06-19.86,111.71-24.05,169.44-16.54c39.75,5.17,77.42,16.85,112.03,37.36
	c8.71,5.16,16.86,11.32,24.95,17.44c2.13,1.61,3.81,4.63,4.44,7.3c3.19,13.62,5.77,27.38,9.02,40.98c0.88,3.68,2.72,7.51,5.17,10.37
	c19.27,22.38,29.28,48.56,32.37,77.61c0.17,1.56-1.26,4.16-2.66,4.86c-6.07,3.06-12.41,5.61-18.93,8.46
	c-0.62-0.88-1.22-1.62-1.7-2.43c-39.6-66.75-97.69-106.64-174.35-118.53c-51.92-8.05-102.42-2.25-150.29,20.3
	c-45.63,21.5-81.07,54.32-106.24,98.11C181.07,589.18,180.64,589.88,179.91,591.09z"/>
<path class="st0" d="M401.8,1045.68c-50.08-1.04-88.67-17.02-120.24-49.56c-3.12-3.21-4.37-6.33-3.93-11.01
	c3.71-39.97,7.14-79.96,10.5-119.96c0.37-4.4,1.85-7.8,4.91-11c17.58-18.34,39.21-30.15,62.64-39.02c1.39-0.53,3.57-0.1,4.96,0.66
	c24.04,13.09,48.05,12.43,72.17,0.24c1.59-0.8,3.91-1.5,5.4-0.94c23.91,9.05,46.11,20.95,63.54,40.2c2.05,2.26,3.61,5.69,3.89,8.72
	c3.79,41.3,7.37,82.62,10.78,123.95c0.17,2.09-1.13,4.83-2.62,6.46c-22.65,24.7-50.5,40.55-83.26,47.37
	C419.51,1044.09,408.16,1044.85,401.8,1045.68z M318.6,882.12c-1.61,9.65,0.28,22.75,4.4,30.58c4.16,7.91,10.71,12.08,19.7,12.27
	c16.26,0.34,28.16-7.75,34.03-22.81c0.61-1.56,2.7-3.57,4.14-3.6c12.49-0.28,24.99-0.26,37.48-0.02c1.37,0.03,3.18,1.7,3.96,3.08
	c2.04,3.59,3.16,7.76,5.47,11.13c9.57,13.99,31.82,16.79,42.51,5.22c9.21-9.97,11.1-22.58,11.97-35.85
	C427.35,882.12,373.1,882.12,318.6,882.12z"/>
<path class="st0" d="M185.34,206.04c-2.88-1.64-5.92-3.08-9.03-4.24c-20.33-7.57-40.63-6.89-57.76,14.26
	c-31.74,39.18-58.52,81.36-78.22,127.83c-8.02,18.91-14.22,38.43-15.07,64.23c-0.65,16.92,9.48,34.55,22.39,50.88
	c10.02,12.68,22.52,22.17,38.47,26.39c18.06,4.78,33.69-1.6,42.87-17.87c4.33-7.68,8.53-15.5,11.93-23.61
	c17.57-41.91,35.23-83.79,52.07-125.99c7.19-18.03,13.78-36.52,18.26-55.37C217.59,235.84,209.26,219.61,185.34,206.04z
	 M44.35,373.02c-1.12-0.46-2.05-0.78-2.93-1.22c-0.41-0.21-0.71-0.64-1.51-1.4c22.46-44.32,42.61-90.08,76.35-127.45
	c1.29,0.49,1.67,0.52,1.86,0.73c0.78,0.85,1.49,1.76,2.14,2.53C86.7,283.47,67.08,328.86,44.35,373.02z M61.67,417.08
	c-1.67-0.92-3.03-1.67-4.56-2.52c27.87-49.32,55.97-98.08,78.3-150.39c1.63,0.67,2.84,1.16,4.74,1.94
	C118.02,318.53,89.64,367.44,61.67,417.08z"/>
<path class="st0" d="M766.47,386.12c2.41,26.18-23.49,67.48-52.74,78.88c-4.76,1.85-9.87,3.28-14.93,3.78
	c-16.06,1.6-28.45-4.76-35.89-19.14c-7.18-13.89-14.32-27.88-20.22-42.34c-19.37-47.46-38.51-95.03-56.9-142.87
	c-4.04-10.52-5.34-22.28-6.61-33.61c-1.55-13.78,4.55-24.9,14.99-33.72c12.6-10.65,26.85-17.22,43.62-17.37
	c12.15-0.11,22.49,4.27,30.65,13.3c21.43,23.71,39.01,50.2,55.23,77.61c14.45,24.41,27.45,49.59,35.64,76.85
	c3.76,12.51,5.77,25.54,8.57,38.33C767.41,385.92,766.94,386.02,766.47,386.12z M651.79,248.62
	c22.61,52.39,50.46,101.42,78.57,150.54c1.13-0.51,1.92-0.76,2.59-1.2c0.63-0.42,1.14-1.03,1.72-1.59
	c-27.77-49.06-55.78-97.68-77.88-149.52c-0.84,0.12-1.5,0.12-2.08,0.32C653.94,247.45,653.24,247.89,651.79,248.62z M752.11,353.33
	c-16.57-34.93-33.36-68.97-54.65-100.51c-6.21-9.19-13.91-17.37-20.97-25.98c-0.48-0.59-1.31-0.9-2.11-1.43
	c-0.85,1.05-1.59,1.92-2.27,2.84c-0.17,0.23-0.09,0.63-0.07,0.45c33.2,37.57,53.27,82.56,75.5,126.6
	C748.98,354.67,750.3,354.1,752.11,353.33z"/>
<path class="st0" d="M563.05,418.45c-30.21-25.52-65.8-36.31-102.76-43.15c-19.11-3.53-38.57-5.9-57.97-7.01
	c-23.03-1.31-45.85,2.53-68.46,6.78c-25.61,4.81-50.75,11.45-73.86,23.88c-10.19,5.48-19.71,12.19-29.9,18.57
	c-2.88-5.06-6.27-10.57-9.1-16.35c-0.64-1.3,0.27-3.77,1.14-5.33c20.4-36.68,40.9-73.3,61.38-109.94
	c3.56-6.38,7.12-12.76,10.23-18.32c68.84,25.89,136.87,25.99,205.91,0.07c-0.09-0.12,0.7,0.7,1.23,1.65
	c23.66,42.3,47.34,84.59,70.82,126.98c0.96,1.74,0.89,4.81,0.02,6.65C569.27,408.15,566.13,413.05,563.05,418.45z"/>
<path class="st0" d="M387.23,280.48c-28.42-0.33-58.68-5.05-87.87-15.98c-3.29-1.23-5.08-2.91-5.94-6.44
	c-2.96-12.12-6.38-24.13-9.36-36.26c-0.42-1.7,0.02-4.55,1.19-5.56c22.95-19.92,47.82-36.74,77.41-45.21
	c26.74-7.65,52.4-3.51,77.1,8.38c19.62,9.44,37.43,21.63,53.97,35.76c2.61,2.23,2.91,4.28,2.06,7.35
	c-3.32,12.03-6.53,24.1-9.52,36.21c-0.73,2.97-2.18,4.44-4.95,5.48C451.84,275.28,421.28,280.25,387.23,280.48z"/>
<path class="st0" d="M207.99,207.64c33.33,15.26,50,48.82,42.63,84.5c-6.78,32.82-18.78,63.9-32.34,94.35
	c-10.69,24.02-22.08,47.76-34.12,71.13c-7.07,13.71-17.59,25.08-30.3,34.11c-15.88,11.28-33.36,15.44-52.58,11.29
	c-1.24-0.27-2.43-0.77-4.99-1.59c17.33-0.88,29.22-9.31,37.66-21.78c8.08-11.93,15.08-24.73,21.31-37.74
	c21.75-45.38,41.87-91.49,56.99-139.57c3.94-12.52,7.17-25.34,9.64-38.23C225.88,243.38,224.92,223.49,207.99,207.64z"/>
<path class="st0" d="M694.35,483.81c-11.6,3.87-23.33,3.95-35.05,0.6c-13.33-3.81-24.24-11.55-33.84-21.32
	c-13.14-13.39-22.08-29.47-30.01-46.28c-18.13-38.41-35.86-77.01-47.81-117.88c-3.72-12.71-6.62-25.9-7.82-39.05
	c-3.08-33.83,22.79-61,43.52-69.57c-0.02,0.27,0.06,0.63-0.07,0.76c-15.05,14.68-16.86,32.85-13.74,52.28
	c4.24,26.46,13.04,51.61,22.39,76.56c15.49,41.34,33.42,81.64,52.95,121.23c5.63,11.41,12.35,22.1,22.02,30.64
	C674.71,478.69,683.46,483.45,694.35,483.81z"/>
<path class="st1" d="M318.6,882.12c54.51,0,108.76,0,163.66,0c-0.87,13.26-2.75,25.88-11.97,35.85
	c-10.69,11.57-32.95,8.76-42.51-5.22c-2.31-3.38-3.43-7.54-5.47-11.13c-0.78-1.38-2.59-3.05-3.96-3.08
	c-12.49-0.24-24.99-0.26-37.48,0.02c-1.44,0.03-3.54,2.05-4.14,3.6c-5.87,15.06-17.76,23.15-34.03,22.81
	c-9-0.19-15.55-4.36-19.7-12.27C318.88,904.87,316.99,891.77,318.6,882.12z"/>
<path class="st1" d="M135.41,264.17c1.63,0.67,2.84,1.16,4.74,1.94c-22.13,52.42-50.51,101.32-78.48,150.97
	c-1.67-0.92-3.03-1.67-4.56-2.52C84.98,365.24,113.08,316.48,135.41,264.17z"/>
<path class="st1" d="M44.35,373.02c-1.12-0.46-2.05-0.78-2.93-1.22c-0.41-0.21-0.71-0.64-1.51-1.4
	c22.46-44.32,42.61-90.08,76.35-127.45c1.29,0.49,1.67,0.52,1.86,0.73c0.78,0.85,1.49,1.76,2.14,2.53
	C86.7,283.47,67.08,328.86,44.35,373.02z"/>
<path class="st1" d="M651.79,248.62c1.45-0.73,2.15-1.17,2.92-1.44c0.59-0.21,1.25-0.2,2.08-0.32
	c22.1,51.83,50.11,100.45,77.88,149.52c-0.59,0.55-1.09,1.17-1.72,1.59c-0.67,0.44-1.46,0.69-2.59,1.2
	C702.25,350.04,674.4,301.01,651.79,248.62z"/>
<path class="st1" d="M752.11,353.33c-1.81,0.78-3.13,1.35-4.58,1.97c-22.23-44.04-42.3-89.03-75.5-126.6
	c-0.02,0.18-0.09-0.22,0.07-0.45c0.67-0.92,1.42-1.8,2.27-2.84c0.81,0.53,1.63,0.84,2.11,1.43c7.06,8.61,14.77,16.79,20.97,25.98
	C718.75,284.35,735.54,318.39,752.11,353.33z"/>
<path class="st0" d="M604.46,611.92c-1.96,0.68-4.12,1.05-5.81,2.15c-1.12,0.73-1.56,2.49-2.29,3.8
	c-7.57,13.5-15.13,27.01-22.35,39.89c-5.21-4.81-9.39-10.45-15-13.43c-7.36-3.91-15.64-6.91-23.86-8.2
	c-26.94-4.25-54.16-3.44-81.28-2.26c-15.94,0.69-28.92,7.45-36.04,22.78c-0.11,0.24-0.55,0.32-1.2,0.67
	c-17.02-6.65-34.45-6.95-52.06-0.01c-8.93-19.21-25.5-23.8-44.36-24c-8.66-0.09-17.35-0.45-25.99,0.02
	c-17.6,0.97-35.23,1.88-52.72,3.88c-10.18,1.16-19.57,5.54-26.71,13.45c-2.18,2.41-3.96,5.17-6.19,8.11
	c-8.06-14.37-15.86-28.3-23.69-42.23c-0.73-1.3-1.31-2.92-2.44-3.71c-1.18-0.82-3.4-1.55-4.33-0.98c-1.24,0.76-2.24,2.82-2.28,4.35
	c-0.04,1.47,1.22,3.02,2.02,4.47c7.94,14.25,15.91,28.49,23.87,42.73c-0.54,0-1.08-0.01-1.62-0.01c-0.33,3.43-0.65,6.85-0.99,10.35
	c2.55,0.32,4.15,0.52,6.14,0.77c0,7.05-0.09,13.85,0.02,20.65c0.36,24.24,11.44,41.91,32.92,53.02c10.38,5.37,21.63,7.53,33.21,8.34
	c15.28,1.07,30.3-0.15,44.89-5.04c36.45-12.2,52.1-45.18,50.82-80.77c-0.16-4.33,0.83-6.21,4.83-7.46
	c13.41-4.18,26.59-3.4,39.78,0.93c2.7,0.89,3.19,2.25,3.3,5.06c0.35,8.76,0.55,17.65,2.21,26.22c4.54,23.43,16.8,41.76,38.89,51.9
	c26.81,12.3,54.59,13.08,82.23,3.11c20.07-7.24,33.03-21.82,37.06-42.97c1.67-8.73,0.99-17.9,1.34-26.88
	c0.08-2.08,0.01-4.16,0.01-6.06c2.49-0.38,4.07-0.62,6.38-0.97c-0.58-3.82-1.11-7.28-1.84-12.08c3.59-6.41,7.98-14.26,12.38-22.1
	c4-7.12,8.2-14.13,11.84-21.42C606.29,616.5,604.88,613.96,604.46,611.92z"/>
</svg>
